<svg  version="1.1" id="Uploaded to svgrepo.com" xmlns="http://www.w3.org/2000/svg" xmlns:xlink="http://www.w3.org/1999/xlink" viewBox="0 0 32.00 32.00" xml:space="preserve" fill="#000000" stroke="#000000" stroke-width="0.00032" transform="rotate(-45)matrix(1, 0, 0, -1, 0, 0)"><g id="SVGRepo_bgCarrier" stroke-width="0"></g><g id="SVGRepo_tracerCarrier" stroke-linecap="round" stroke-linejoin="round"></g><g id="SVGRepo_iconCarrier"> <style type="text/css"> .sharpcorners_een{fill:#309092;} .st0{fill:#0B1719;} </style> <g> <g> <rect x="9" y="1" class="sharpcorners_een" width="13" height="2"></rect> <path class="sharpcorners_een" d="M24.598,12.998C22.318,11.098,21,8.284,21,5.316V4H10v1.316c0,2.968-1.318,5.782-3.598,7.682 L4,15l11,16V19.95c-1.141-0.232-2-1.24-2-2.45c0-1.381,1.119-2.5,2.5-2.5s2.5,1.119,2.5,2.5c0,1.209-0.859,2.218-2,2.45V31l11-16 L24.598,12.998z"></path> </g> <g> <rect x="9" y="1" class="sharpcorners_een" width="13" height="2"></rect> <path class="sharpcorners_een" d="M24.598,12.998C22.318,11.098,21,8.284,21,5.316V4H10v1.316c0,2.968-1.318,5.782-3.598,7.682 L4,15l11,16V19.95c-1.141-0.232-2-1.24-2-2.45c0-1.381,1.119-2.5,2.5-2.5s2.5,1.119,2.5,2.5c0,1.209-0.859,2.218-2,2.45V31l11-16 L24.598,12.998z"></path> </g> </g> </g></svg>